<?xml version="1.0" encoding="UTF-8"?><svg id="Ebene_2" xmlns="http://www.w3.org/2000/svg" viewBox="0 0 381.95 382.38"><defs><style>.cls-1{fill:#fff;}</style></defs><g id="Ebene_1-2"><g><path class="cls-1" d="M179.89,0c7.59,0,15.19,0,22.78,0,2.64,.34,5.28,.72,7.93,1.01,22.59,2.44,43.95,8.93,64.54,18.76,21.84,10.43,40.26,25.4,56.77,42.82,14.62,15.43,25.69,33.51,33.99,53.24,6.53,15.54,11.15,31.71,13.97,48.36,1.05,6.21,1.42,12.54,2.1,18.82v19.42c-.2,.84-.44,1.66-.58,2.51-1.55,9.11-2.66,18.33-4.69,27.33-8.23,36.46-24.71,68.28-51.62,94.27-15.09,14.57-31.4,27.13-50.35,36.21-20.11,9.64-40.98,15.94-63.09,18.45-30.39,3.45-59.78-.63-88.43-11.04-18.11-6.58-34.45-16.58-49.82-28.13-21.28-15.99-37.52-36.72-50.59-59.77C8.44,256.96,1.09,229.21,.13,200.07c-1.24-37.65,6.38-73.14,26.39-105.53,14.56-23.57,32.08-43.98,54.82-59.81C104.63,18.52,130,7.83,157.75,2.96,165.08,1.68,172.51,.97,179.89,0Zm127.01,60.32C234.53-3.74,137.64,9.88,90.19,48.59c3.08,.81,6.69,1.62,10.21,2.74,3.14,1,6.37,1,9.09,4.23,1.46,1.73,6.54,.31,10.37,.31-2.26-6-7.6-1.9-10.37-3.79,.19-1.43,.81-2.87,.38-3.8-.33-.7-1.99-.92-3.09-1.03-1.68-.16-3.39-.04-5.09-.04,2.51-2.81,5-4.83,7.62-6.65,3.52-2.46,10.98-1.2,13.36,2.14,3.22,4.51,9.21,5.17,13.07,1.2,1.85-1.9,3.35-2.17,5.09-.25-3.12,5.32-7.77,7.49-14.04,6.34,.36,2.38,.62,4.16,.9,6,2.44,0,4.52,.08,6.58-.03,1.29-.07,3.45-.07,3.68-.7,1.02-2.73,3.18-2.48,5.16-2.49,3.17,0,4.41-1.35,3.72-4.53-1.2-.35-2.32-.67-4.76-1.37,2.16-1.82,3.47-3.83,5.01-4.05,3.68-.51,7.47-.16,11.66-.16-1.83,3.86-7.58,5.02-4.76,9.67,.87,1.44,3.93,1.51,6.5,2.38-.13-2.69-.33-4.53-.27-6.35,.03-.88,.32-2.24,.91-2.54,2.49-1.25,5.07-2.39,7.72-3.19,7.06-2.14,13.33,.24,19.65,3.38,3.91,1.94,7.84,3.23,5.94,8.95,1.82,.57,3.3,1.02,4.87,1.51-.63,3.51-2.15,5.57-5.91,4.91-2.55-.45-4.21,.45-4.75,3.2-.16,.81-.69,1.54-1.11,2.45-5.51-1.27-10.87-2.5-17.26-3.97,5.15-2.63,9.3-4.75,13.38-6.84-2.5-3.97-5.55-5.04-9.44-4-2.66,.71-5.57,.8-8.02,1.93-2.91,1.34-5.45,3.5-8.6,5.61,.16,.3,.83,1.55,1.34,2.5-2.7,1.49-5.23,2.89-8,4.42-.66-2.42-1.06-3.92-1.76-6.51-6.57,3.57-12.69,6.82-18.74,10.21-4.01,2.25-4.16,7.38,.05,9.63,3.25,1.74,7.05,2.4,11.08,3.69v8.73c.36,.28,.73,.55,1.09,.83,1.34-1.19,2.83-2.25,3.98-3.6,1.53-1.79,2.39-4.71,4.25-5.57,7.22-3.33,7.32-3.09,7.42-11.36,0-.62-.24-1.55,.07-1.82,1.97-1.73,4.03-4.59,6.14-4.66,3.61-.13,7.28,1.52,11.1,2.46-.24,2.65-.44,4.96-.65,7.35,5.12,1.75,8.41-2.96,12.72-3.48,.12,.41,.26,.64,.25,.87-.09,5.13-.33,10.09,5.83,12.49,2.33,.91,1.1,6.37-1.37,7.47-1.32,.59-2.49,1.55-3.73,2.34,1.22,.9,2.42,1.81,3.65,2.69,.29,.21,.66,.34,1.01,.44,3.07,.9,3.53,2.89,2.25,6.04-2.65-.76-5.23-1.45-7.77-2.24-4.61-1.43-4.58-1.61-1.79-5.8,.51-.76,.03-2.2,0-3.32-.89,.28-2.03,.29-2.62,.88-2.5,2.48-7.65,2.33-10.12-.06-.99-.96-2.84-1.5-4.22-1.38-1.09,.1-2.07,1.52-3.1,2.35,.83,.98,1.53,2.13,2.52,2.88,.69,.52,1.79,.49,3.17,.82-1.04,1.26-1.86,2.25-2.84,3.45-2.52-2.99-4.5-2.12-6.81,.15-3.58,3.51-6.66,7.4-11.24,10.04-6.83,3.94-13.25,8.82-15.33,17.38-.15,.64-.76,1.28-1.32,1.67-2.62,1.83-5.22,3.73-7.99,5.3-4.76,2.7-8.38,5.91-7.17,12.22,.27,1.39,.04,2.87,.04,4.36-5.23-.83-8.23-3.29-7-9.18-5.09,0-9.6,.07-14.11-.01-10.24-.19-17.49,4.23-21.3,14.06-.22,.57-.33,1.21-.61,1.75-2.33,4.42-1.84,7.86,1.61,11.11,1.63,1.54,8.42,1.48,10.78-.1,3.51-2.34,7.01-4.68,10.5-7.01,3.26,4.95-1.54,7.89-2.05,11.87,3.17,.61,6.27,1.2,9.5,1.82,.38,5.23,.75,10.29,1.14,15.67,4.14,.72,8.21,1.48,12.31,2.08,.71,.1,1.7-.27,2.25-.77,1.97-1.82,3.98-3.65,5.63-5.75,1.81-2.31,3.5-3.99,6.71-2.66,2.43,1.01,6.27,.81,7.3,2.51,2.62,4.33,6,4.48,9.96,3.69,1.58-.31,3.06-1.19,4.58-1.82,4.06-.13,6.45,3.03,8.09,6.7,1.78,3.97,4.47,5.15,8.65,4.94,6.47-.32,7.42,.48,9.6,6.49,.7,1.93,.9,4.16,.83,6.23-.09,2.63,1.22,3.45,3.35,4.45,6.4,3.01,13.05,4.13,19.98,3.49,3.09-.29,5.15,.67,6.32,3.64,1.12,2.85,3.16,4.58,6.19,5.14,.9,.16,1.72,.7,2.44,1,.39,5.63-3.33,8.83-5.97,12.64-1.15,1.66-2.21,3.61-2.55,5.56-.74,4.28-1.35,8.64-1.34,12.97,.01,4.23-1.85,6.74-4.97,9.2-2.98,2.35-6.06,1.44-9.12,1.43-2.21,0-3.38,.71-4.7,2.57-2.46,3.48-.97,6.72-.07,9.96,.8,2.91,.43,5.11-1.56,7.44-3.05,3.56-6.59,7.06-8.39,11.26-3.23,7.56-10.08,8.66-16.24,11.24-1.67,.7-3.37,1.33-5.06,2,1.26,1.19,2.53,2.38,4.54,4.27-1.18,1.73-2.75,4.02-4.85,7.09,2.45,1.08,4.83,2.13,7.76,3.41-.3,1.5-.49,3.59-1.17,5.5-1.06,2.94-.88,5.24,1.94,7.05,1.33,.86,2.54,1.96,3.65,3.11,1.42,1.47,.74,4.23-1.12,4.2-4.37-.07-8.65,.69-12.67-3.02-4.9-4.53-8.65-9.62-11.93-15.37-2.1-3.68-3.1-7.29-2.18-11.31,1.17-5.15,.01-9.38-3.51-13.3-1.07-1.19-1.38-3.54-1.25-5.29,.26-3.56,1.06-7.08,1.63-10.53q-3.47-1.66-3.48-5.3c0-6.6-.39-13.23,.12-19.78,.4-5.05-1.26-8.36-5.54-10.47-3.35-1.65-7.4-2.47-9.99-4.92-2.52-2.38-3.39-6.48-5.35-9.59-1.71-2.71-3.75-5.25-5.94-7.58-2.89-3.08-4.57-6.23-2.92-10.62,.59-1.56,.6-3.47,.45-5.17-.32-3.75,.89-6.49,4.34-8.05,4.21-1.91,4.87-4.95,4.35-9.56-.49-4.38-2.19-5.62-5.9-5.25-5.79,.57-10.18-1.57-13.22-6.62-3.28-5.45-8.45-7.55-14.36-8.36-.91-.13-1.79-.47-2.68-.72,.07-1.5,.13-2.7,.2-4.15-2.23,.14-4.51-2.15-6.18,.99-.14,.26-.93,.33-1.37,.23-7.48-1.72-15.85-1.95-19-11.18-.37-1.09-.52-2.73,.03-3.6,1.28-2.06,.88-3.51-.43-5.33-4.57-6.29-9.34-12.52-9.4-20.92,0-.21-.21-.41-.38-.71h-3.1c-.54,6.72,1.73,12.3,5.65,17.31,1.64,2.1,2.26,4.29,.41,7.48-1.97-1-4.55-1.48-5.72-3.05-4.26-5.72-7.41-12-6.03-19.62,.13-.72,.23-1.58-.03-2.22-.46-1.12-1.03-2.81-1.88-3.05-4.89-1.39-5.98-4.73-5.26-9.29,.08-.48-.09-1-.24-2.38-2.34,5.5-4.77,9.97-6.18,14.76-10.99,37.37-11.45,74.45,2.46,111.38,11.44,30.36,28.35,56.52,53.69,76.78,14.61,11.68,30.2,21.41,47.67,28.16,32.97,12.73,66.67,15.38,101.01,7.86,29.72-6.51,56.28-19.85,78.95-40.64,6.57-6.02,12.51-12.75,19.4-19.83-2.8-.23-4.32-.36-6.14-.51,0-3.15,.13-6.13-.06-9.09-.09-1.4-.4-3.15-1.29-4.07-4.65-4.82-6.09-10.54-5.22-17.04,.4-2.96-.58-5.18-2.8-7.2-2.97-2.71-3.38-6.42-1.53-10.1,1.22-2.44,2.34-4.94,3.79-7.24,1.39-2.2,1.09-3.96-.19-6.11-3.16-5.32-6.18-10.74-9.02-16.24-.79-1.52-1.08-3.49-1.03-5.24,.12-3.91,.59-7.8,.94-11.88-1.7-.19-2.9-.36-4.1-.45-3.65-.28-7.2-.44-9.86-3.8-1.49-1.88-7.42-1.14-9.6,.25-1.63,1.04-3.59,1.8-5.5,2.11-4.01,.65-8.07,.96-12.12,1.32-3.33,.29-6.28,.19-8.73-3.1-3.68-4.95-7.99-9.42-12.02-14.11-1.37-1.6-2.3-14.87-1.19-16.6,.12-.19,.34-.36,.55-.45,3.05-1.25,2.21-3.88,1.82-5.85-1.62-1.13-2.87-2.41-3.69-3.93-1.24-2.31,.32-3.53,2.05-4.75,4.42-3.13,8.64-6.56,13.16-9.52,2.52-1.65,3.33-3.59,3.13-6.46-.13-1.93-.49-4.97,.51-5.66,3.4-2.37,6.59-5.52,11.35-5.26,3.5,.2,7.67,.99,10.42-.55,7.81-4.36,16.19-2.54,24.64-4.26v9.89c7.19,2.23,13.96,4.33,20.94,6.5,.16-1.98,.3-3.65,.44-5.45,4.63-.27,9.16-2.24,12.99,1.84,5.53,5.89,12.44,2.95,19.64,3.52-1.81-5.38-3.38-10.01-4.83-14.32-3.82-1.45-8.35,1.78-10.92-2.4-1.9-3.1-3.01-6.7-4.55-10.28-5.91,.92-3.81,7.5-6.39,11.24-3.51-3.68-8.58-6.2-7.46-12.59,.06-.33-.06-.84-.29-1.05-2.69-2.53-5.14-5.49-8.23-7.35-1.85-1.11-4.7-.5-7.1-.66-.3,.33-.6,.65-.91,.98,1.64,2.38,2.93,5.15,5.01,7.02,2.28,2.05,5.28,3.26,7.5,4.55-.56,1.92-1.29,3.1-1.13,4.11,.56,3.4-1.54,4.54-4.04,4.91-2.51,.37-4.88-.27-5.56-3.38,2.02-1.29,5.49,1.44,6.4-2.42-4.49-4.72-11.59-6.07-14.5-12.71-1.23,1.11-2.33,2.3-3.63,3.2-.81,.56-2.1,1.22-2.85,.94-3.33-1.24-5.22,.19-6.92,2.92-1.43,2.3-4.06,4.13-4.73,6.58-1.79,6.56-6.66,5.74-11.34,5.81-1.22,.02-2.45,.05-3.67,0-4.34-.15-6.33-1.89-7.04-6.17-.26-1.59-.7-3.22-.61-4.8,.17-3.04,.64-6.17,4.66-6.25,4.79-.1,9.59-.02,14.65-.02,.27-1.15,.6-2.55,.94-4.02-1.35-.54-2.45-.98-3.62-1.44,.18-1.05,.44-1.89,.44-2.74,.03-3.46,1.15-5.77,5.1-5.45,4.25,.34,6.46-2.56,8.05-5.83,2.03-4.16,5.66-4.79,9.47-4.9,2.47-.07,4.96,.48,7.75,.78-.47-3.06-.84-5.47-1.27-8.2-2.45,.9-4.58,1.69-7.04,2.59-.55-1.39-.86-2.75-1.57-3.84-.67-1.02-1.61-2.17-2.68-2.55-2.97-1.06-4.11-3.86-1.8-5.98,2.01-1.85,4.7-2.91,7.01-4.43,1.81-1.19,3.52-2.56,5.64-4.12Zm19.72,20.72c-2.82-3.26-5.39-6.23-7.97-9.2,.49,5.74-1.54,9.28-6.83,10.74-.11,.03-.3,.13-.3,.19,.07,.98,.12,2.79,.27,2.8,3.51,.2,7.1,.63,10.52,.06,1.46-.24,2.57-2.65,4.3-4.6Zm-198.48,22.78c.97-3.39-.42-5.34-2.71-5.82-5.52-1.17-10.34,.98-11.29,5.18,4.7,.21,9.26,.42,14,.64Zm-5.2,1.75c-5.54-.91-9.46,1.93-9.54,6.62-.02,.83,.78,1.97,1.52,2.41,.46,.27,1.81-.26,2.26-.84,1.93-2.52,3.68-5.19,5.77-8.2Zm-34.71-44.02c9.01,.68,10.29,.01,9.45-5.29-3.19,.65-6.36,1.3-9.64,1.97,.08,1.29,.13,2.23,.2,3.32Zm18.43,30.82c4.53-.1,5.47-2.86,5.47-7.5-2.84,.52-5.41,.99-8.37,1.53,.85,1.79,1.27,2.68,1.69,3.56,.38,.77,.77,1.53,1.21,2.41Zm25.22,19.86c-5.43,.41-7.75,2.03-7.96,5.42,6.82,.85,8.22-.06,7.96-5.42Zm-43.72-43.88c2.02,1.76,8.31,2.52,9.31,1.35,.6-.7,.5-2.03,.87-3.79-3.73,.89-6.64,1.59-10.18,2.44Zm47.08,40.12c-.41,5.68,.39,6.25,6.35,5.39,.72-5.37-4.14-3.19-6.35-5.39Zm-7.39,1.93c4.67-.26,5.63-1.2,5.17-4.99h-5.17v4.99Zm219.27,1.82c-.32,.06-.64,.11-.96,.17v7.95c1.43-.11,2.72-.2,4.53-.34-1.29-2.82-2.43-5.3-3.57-7.78Z"/><path class="cls-1" d="M279.42,87.59c-1.25-1.45-2.01-2.44-2.88-3.32-.42-.42-1.08-.57-1.56-.94-1.71-1.36-4.63-1.87-3.87-5.08,.77-3.23,3.46-3.41,6.06-3.63,.48-.04,.96-.07,1.79-.13,1.42,6.23,2.86,12.61,9.85,15.56-3.61,6.78-9.84,4.06-15.08,4.88-.48-6.01-.4-6.14,5.7-7.34Z"/><path class="cls-1" d="M262.05,92.26c-.64-4.92,2.26-9.42,6.54-9.77,1.43-.12,2.96,1.04,4.45,1.61-.59,1.48-.78,3.52-1.86,4.34-2.6,1.97-4.9,5.13-9.13,3.82Z"/><path class="cls-1" d="M169.93,107.29c2.41-1.33,4.36-2.64,6.49-3.49,1.12-.45,2.55-.08,3.84-.08,.16,.31,.32,.62,.48,.94-2.38,1.71-4.58,3.84-7.2,5.01-2.06,.93-3.61-.49-3.62-2.38Z"/></g></g></svg>